<?xml version="1.0" encoding="UTF-8"?>
<!DOCTYPE svg PUBLIC "-//W3C//DTD SVG 1.1//EN" "http://www.w3.org/Graphics/SVG/1.1/DTD/svg11.dtd">
<svg version="1.2" width="357.77mm" height="358.23mm" viewBox="-351 -351 35777 35823" preserveAspectRatio="xMidYMid" fill-rule="evenodd" stroke-width="28.222" stroke-linejoin="round" xmlns="http://www.w3.org/2000/svg" xmlns:ooo="http://xml.openoffice.org/svg/export" xmlns:xlink="http://www.w3.org/1999/xlink" xmlns:presentation="http://sun.com/xmlns/staroffice/presentation" xmlns:smil="http://www.w3.org/2001/SMIL20/" xmlns:anim="urn:oasis:names:tc:opendocument:xmlns:animation:1.0" xmlns:svg="urn:oasis:names:tc:opendocument:xmlns:svg-compatible:1.0" xml:space="preserve">
 <defs class="EmbeddedBulletChars">
  <g id="bullet-char-template-57356" transform="scale(0.00048828125,-0.00048828125)">
   <path d="M 580,1141 L 1163,571 580,0 -4,571 580,1141 Z"/>
  </g>
  <g id="bullet-char-template-57354" transform="scale(0.00048828125,-0.00048828125)">
   <path d="M 8,1128 L 1137,1128 1137,0 8,0 8,1128 Z"/>
  </g>
  <g id="bullet-char-template-10146" transform="scale(0.00048828125,-0.00048828125)">
   <path d="M 174,0 L 602,739 174,1481 1456,739 174,0 Z M 1358,739 L 309,1346 659,739 1358,739 Z"/>
  </g>
  <g id="bullet-char-template-10132" transform="scale(0.00048828125,-0.00048828125)">
   <path d="M 2015,739 L 1276,0 717,0 1260,543 174,543 174,936 1260,936 717,1481 1274,1481 2015,739 Z"/>
  </g>
  <g id="bullet-char-template-10007" transform="scale(0.00048828125,-0.00048828125)">
   <path d="M 0,-2 C -7,14 -16,27 -25,37 L 356,567 C 262,823 215,952 215,954 215,979 228,992 255,992 264,992 276,990 289,987 310,991 331,999 354,1012 L 381,999 492,748 772,1049 836,1024 860,1049 C 881,1039 901,1025 922,1006 886,937 835,863 770,784 769,783 710,716 594,584 L 774,223 C 774,196 753,168 711,139 L 727,119 C 717,90 699,76 672,76 641,76 570,178 457,381 L 164,-76 C 142,-110 111,-127 72,-127 30,-127 9,-110 8,-76 1,-67 -2,-52 -2,-32 -2,-23 -1,-13 0,-2 Z"/>
  </g>
  <g id="bullet-char-template-10004" transform="scale(0.00048828125,-0.00048828125)">
   <path d="M 285,-33 C 182,-33 111,30 74,156 52,228 41,333 41,471 41,549 55,616 82,672 116,743 169,778 240,778 293,778 328,747 346,684 L 369,508 C 377,444 397,411 428,410 L 1163,1116 C 1174,1127 1196,1133 1229,1133 1271,1133 1292,1118 1292,1087 L 1292,965 C 1292,929 1282,901 1262,881 L 442,47 C 390,-6 338,-33 285,-33 Z"/>
  </g>
  <g id="bullet-char-template-9679" transform="scale(0.00048828125,-0.00048828125)">
   <path d="M 813,0 C 632,0 489,54 383,161 276,268 223,411 223,592 223,773 276,916 383,1023 489,1130 632,1184 813,1184 992,1184 1136,1130 1245,1023 1353,916 1407,772 1407,592 1407,412 1353,268 1245,161 1136,54 992,0 813,0 Z"/>
  </g>
  <g id="bullet-char-template-8226" transform="scale(0.00048828125,-0.00048828125)">
   <path d="M 346,457 C 273,457 209,483 155,535 101,586 74,649 74,723 74,796 101,859 155,911 209,963 273,989 346,989 419,989 480,963 531,910 582,859 608,796 608,723 608,648 583,586 532,535 482,483 420,457 346,457 Z"/>
  </g>
  <g id="bullet-char-template-8211" transform="scale(0.00048828125,-0.00048828125)">
   <path d="M -4,459 L 1135,459 1135,606 -4,606 -4,459 Z"/>
  </g>
  <g id="bullet-char-template-61548" transform="scale(0.00048828125,-0.00048828125)">
   <path d="M 173,740 C 173,903 231,1043 346,1159 462,1274 601,1332 765,1332 928,1332 1067,1274 1183,1159 1299,1043 1357,903 1357,740 1357,577 1299,437 1183,322 1067,206 928,148 765,148 601,148 462,206 346,322 231,437 173,577 173,740 Z"/>
  </g>
 </defs>
 <g class="Page">
  <g class="com.sun.star.drawing.CustomShape">
   <g id="id3">
    <rect class="BoundingBox" stroke="none" fill="none" x="-351" y="-351" width="35777" height="35823"/>
    <path fill="rgb(201,33,30)" stroke="none" d="M 34175,17560 C 34175,20485 33406,23358 31946,25891 30486,28423 28385,30527 25856,31989 23327,33451 20458,34221 17537,34221 14616,34221 11747,33451 9218,31989 6689,30527 4588,28423 3128,25891 1668,23358 899,20485 899,17560 899,14635 1668,11762 3128,9230 4588,6697 6689,4593 9218,3131 11747,1669 14616,899 17537,899 20458,899 23327,1669 25856,3131 28385,4593 30486,6697 31946,9229 33406,11762 34175,14635 34175,17560 L 34175,17560 Z"/>
    <path fill="none" stroke="rgb(0,0,0)" stroke-width="2500" stroke-linejoin="round" d="M 34175,17560 C 34175,20485 33406,23358 31946,25891 30486,28423 28385,30527 25856,31989 23327,33451 20458,34221 17537,34221 14616,34221 11747,33451 9218,31989 6689,30527 4588,28423 3128,25891 1668,23358 899,20485 899,17560 899,14635 1668,11762 3128,9230 4588,6697 6689,4593 9218,3131 11747,1669 14616,899 17537,899 20458,899 23327,1669 25856,3131 28385,4593 30486,6697 31946,9229 33406,11762 34175,14635 34175,17560 L 34175,17560 Z"/>
   </g>
  </g>
  <g class="com.sun.star.drawing.CustomShape">
   <g id="id4">
    <rect class="BoundingBox" stroke="none" fill="none" x="14313" y="4028" width="6194" height="18760"/>
    <path fill="rgb(255,255,255)" stroke="none" d="M 15678,4528 L 15679,4528 C 15527,4528 15377,4568 15246,4644 15114,4720 15005,4829 14929,4961 14853,5092 14813,5242 14813,5393 L 14813,21421 14813,21422 C 14813,21573 14853,21723 14929,21854 15005,21986 15114,22095 15246,22171 15377,22247 15527,22287 15679,22287 L 19140,22287 19141,22287 C 19292,22287 19442,22247 19573,22171 19705,22095 19814,21986 19890,21854 19966,21723 20006,21573 20006,21422 L 20006,5393 20006,5393 20006,5393 C 20006,5242 19966,5092 19890,4961 19814,4829 19705,4720 19573,4644 19442,4568 19292,4528 19141,4528 L 15678,4528 Z"/>
    <path fill="none" stroke="rgb(0,0,0)" stroke-width="1000" stroke-linejoin="round" stroke-linecap="round" d="M 15678,4528 L 15679,4528 C 15527,4528 15377,4568 15246,4644 15114,4720 15005,4829 14929,4961 14853,5092 14813,5242 14813,5393 L 14813,21421 14813,21422 C 14813,21573 14853,21723 14929,21854 15005,21986 15114,22095 15246,22171 15377,22247 15527,22287 15679,22287 L 19140,22287 19141,22287 C 19292,22287 19442,22247 19573,22171 19705,22095 19814,21986 19890,21854 19966,21723 20006,21573 20006,21422 L 20006,5393 20006,5393 20006,5393 C 20006,5242 19966,5092 19890,4961 19814,4829 19705,4720 19573,4644 19442,4568 19292,4528 19141,4528 L 15678,4528 Z"/>
   </g>
  </g>
  <g class="com.sun.star.drawing.CustomShape">
   <g id="id5">
    <rect class="BoundingBox" stroke="none" fill="none" x="13811" y="23944" width="7146" height="7129"/>
    <path fill="rgb(255,255,255)" stroke="none" d="M 20456,27508 C 20456,28045 20314,28574 20044,29039 19775,29505 19387,29892 18920,30161 18453,30429 17923,30571 17384,30571 16844,30571 16314,30429 15847,30161 15380,29892 14992,29505 14723,29039 14453,28574 14311,28045 14311,27508 14311,26970 14453,26441 14723,25976 14992,25510 15380,25123 15847,24854 16314,24586 16844,24444 17383,24444 17923,24444 18453,24586 18920,24854 19387,25123 19775,25510 20044,25976 20314,26441 20456,26970 20456,27507 L 20456,27508 Z"/>
    <path fill="none" stroke="rgb(0,0,0)" stroke-width="1000" stroke-linejoin="round" d="M 20456,27508 C 20456,28045 20314,28574 20044,29039 19775,29505 19387,29892 18920,30161 18453,30429 17923,30571 17384,30571 16844,30571 16314,30429 15847,30161 15380,29892 14992,29505 14723,29039 14453,28574 14311,28045 14311,27508 14311,26970 14453,26441 14723,25976 14992,25510 15380,25123 15847,24854 16314,24586 16844,24444 17383,24444 17923,24444 18453,24586 18920,24854 19387,25123 19775,25510 20044,25976 20314,26441 20456,26970 20456,27507 L 20456,27508 Z"/>
   </g>
  </g>
 </g>
</svg>