<?xml version="1.0" encoding="UTF-8"?>
<!DOCTYPE svg PUBLIC "-//W3C//DTD SVG 1.1//EN" "http://www.w3.org/Graphics/SVG/1.1/DTD/svg11.dtd">
<svg version="1.2" width="51.42mm" height="51.52mm" viewBox="910 900 5142 5152" preserveAspectRatio="xMidYMid" fill-rule="evenodd" stroke-width="28.222" stroke-linejoin="round" xmlns="http://www.w3.org/2000/svg" xmlns:ooo="http://xml.openoffice.org/svg/export" xmlns:xlink="http://www.w3.org/1999/xlink" xmlns:presentation="http://sun.com/xmlns/staroffice/presentation" xmlns:smil="http://www.w3.org/2001/SMIL20/" xmlns:anim="urn:oasis:names:tc:opendocument:xmlns:animation:1.0" xmlns:svg="urn:oasis:names:tc:opendocument:xmlns:svg-compatible:1.0" xml:space="preserve">
 <defs class="EmbeddedBulletChars">
  <g id="bullet-char-template-57356" transform="scale(0.00048828125,-0.00048828125)">
   <path d="M 580,1141 L 1163,571 580,0 -4,571 580,1141 Z"/>
  </g>
  <g id="bullet-char-template-57354" transform="scale(0.00048828125,-0.00048828125)">
   <path d="M 8,1128 L 1137,1128 1137,0 8,0 8,1128 Z"/>
  </g>
  <g id="bullet-char-template-10146" transform="scale(0.00048828125,-0.00048828125)">
   <path d="M 174,0 L 602,739 174,1481 1456,739 174,0 Z M 1358,739 L 309,1346 659,739 1358,739 Z"/>
  </g>
  <g id="bullet-char-template-10132" transform="scale(0.00048828125,-0.00048828125)">
   <path d="M 2015,739 L 1276,0 717,0 1260,543 174,543 174,936 1260,936 717,1481 1274,1481 2015,739 Z"/>
  </g>
  <g id="bullet-char-template-10007" transform="scale(0.00048828125,-0.00048828125)">
   <path d="M 0,-2 C -7,14 -16,27 -25,37 L 356,567 C 262,823 215,952 215,954 215,979 228,992 255,992 264,992 276,990 289,987 310,991 331,999 354,1012 L 381,999 492,748 772,1049 836,1024 860,1049 C 881,1039 901,1025 922,1006 886,937 835,863 770,784 769,783 710,716 594,584 L 774,223 C 774,196 753,168 711,139 L 727,119 C 717,90 699,76 672,76 641,76 570,178 457,381 L 164,-76 C 142,-110 111,-127 72,-127 30,-127 9,-110 8,-76 1,-67 -2,-52 -2,-32 -2,-23 -1,-13 0,-2 Z"/>
  </g>
  <g id="bullet-char-template-10004" transform="scale(0.00048828125,-0.00048828125)">
   <path d="M 285,-33 C 182,-33 111,30 74,156 52,228 41,333 41,471 41,549 55,616 82,672 116,743 169,778 240,778 293,778 328,747 346,684 L 369,508 C 377,444 397,411 428,410 L 1163,1116 C 1174,1127 1196,1133 1229,1133 1271,1133 1292,1118 1292,1087 L 1292,965 C 1292,929 1282,901 1262,881 L 442,47 C 390,-6 338,-33 285,-33 Z"/>
  </g>
  <g id="bullet-char-template-9679" transform="scale(0.00048828125,-0.00048828125)">
   <path d="M 813,0 C 632,0 489,54 383,161 276,268 223,411 223,592 223,773 276,916 383,1023 489,1130 632,1184 813,1184 992,1184 1136,1130 1245,1023 1353,916 1407,772 1407,592 1407,412 1353,268 1245,161 1136,54 992,0 813,0 Z"/>
  </g>
  <g id="bullet-char-template-8226" transform="scale(0.00048828125,-0.00048828125)">
   <path d="M 346,457 C 273,457 209,483 155,535 101,586 74,649 74,723 74,796 101,859 155,911 209,963 273,989 346,989 419,989 480,963 531,910 582,859 608,796 608,723 608,648 583,586 532,535 482,483 420,457 346,457 Z"/>
  </g>
  <g id="bullet-char-template-8211" transform="scale(0.00048828125,-0.00048828125)">
   <path d="M -4,459 L 1135,459 1135,606 -4,606 -4,459 Z"/>
  </g>
  <g id="bullet-char-template-61548" transform="scale(0.00048828125,-0.00048828125)">
   <path d="M 173,740 C 173,903 231,1043 346,1159 462,1274 601,1332 765,1332 928,1332 1067,1274 1183,1159 1299,1043 1357,903 1357,740 1357,577 1299,437 1183,322 1067,206 928,148 765,148 601,148 462,206 346,322 231,437 173,577 173,740 Z"/>
  </g>
 </defs>
 <g class="Page">
  <g class="com.sun.star.drawing.CustomShape">
   <g id="id3">
    <rect class="BoundingBox" stroke="none" fill="none" x="910" y="900" width="5142" height="5152"/>
    <path fill="rgb(0,0,0)" stroke="none" d="M 6001,3476 C 6001,3919 5885,4354 5663,4738 5442,5122 5124,5441 4741,5663 4358,5884 3923,6001 3481,6001 3038,6001 2603,5884 2220,5663 1837,5441 1519,5122 1298,4738 1076,4354 960,3919 960,3476 960,3032 1076,2597 1298,2213 1519,1829 1837,1510 2220,1288 2603,1067 3038,950 3480,950 3923,950 4358,1067 4741,1288 5124,1510 5442,1829 5663,2213 5885,2597 6001,3032 6001,3475 L 6001,3476 Z"/>
    <path fill="none" stroke="rgb(191,0,65)" stroke-width="100" stroke-linejoin="round" d="M 6001,3476 C 6001,3919 5885,4354 5663,4738 5442,5122 5124,5441 4741,5663 4358,5884 3923,6001 3481,6001 3038,6001 2603,5884 2220,5663 1837,5441 1519,5122 1298,4738 1076,4354 960,3919 960,3476 960,3032 1076,2597 1298,2213 1519,1829 1837,1510 2220,1288 2603,1067 3038,950 3480,950 3923,950 4358,1067 4741,1288 5124,1510 5442,1829 5663,2213 5885,2597 6001,3032 6001,3475 L 6001,3476 Z"/>
   </g>
  </g>
  <g class="com.sun.star.drawing.CustomShape">
   <g id="id4">
    <rect class="BoundingBox" stroke="none" fill="none" x="1260" y="1722" width="4207" height="3544"/>
    <g>
     <defs>
      <linearGradient id="gradient1" x1="3433" y1="1883" x2="3433" y2="5244" gradientUnits="userSpaceOnUse">
       <stop offset="0" style="stop-color:rgb(255,128,0)"/>
       <stop offset="1" style="stop-color:rgb(255,128,0)"/>
      </linearGradient>
     </defs>
     <path style="fill:url(#gradient1)" d="M 2535,5241 L 2508,5239 2442,5231 2353,5213 2268,5192 2241,5181 2188,5160 2157,5145 2113,5124 2040,5082 1972,5035 1963,5027 1908,4980 1848,4920 1792,4856 1770,4827 1740,4790 1693,4720 1689,4713 1649,4643 1609,4562 1574,4480 1541,4393 1513,4303 1489,4211 1468,4117 1451,4020 1437,3921 1428,3819 1423,3714 1421,3607 1423,3502 1428,3402 1439,3305 1451,3212 1470,3122 1491,3035 1517,2951 1547,2871 1580,2795 1618,2724 1659,2655 1695,2605 1705,2593 1754,2534 1778,2508 1807,2479 1865,2426 1925,2378 1976,2343 1990,2336 2058,2298 2130,2267 2173,2252 2206,2240 2257,2225 2286,2218 2370,2200 2458,2188 2526,2184 2549,2183 2606,2183 2640,2182 2725,2182 2803,2188 2876,2200 2944,2215 2997,2233 3004,2235 3059,2261 3079,2272 3085,2276 3108,2290 3151,2322 3188,2358 3204,2376 3219,2396 3233,2415 3245,2435 3255,2457 3265,2479 3272,2502 3279,2525 3284,2549 3287,2574 3289,2599 3290,2624 3290,2644 3288,2664 3286,2684 3283,2702 3279,2721 3274,2740 3269,2757 3263,2774 3256,2792 3248,2808 3240,2824 3230,2840 3220,2855 3209,2871 3184,2900 3171,2914 3156,2927 3142,2938 3126,2951 3093,2970 3075,2978 3056,2988 3016,3001 2992,3005 2974,3009 2929,3016 2880,3019 2881,2985 2879,2951 2877,2917 2874,2882 2868,2848 2863,2814 2857,2780 2850,2747 2841,2714 2831,2683 2819,2654 2806,2626 2791,2599 2774,2575 2757,2551 2738,2529 2728,2519 2718,2510 2706,2501 2695,2493 2670,2479 2645,2470 2617,2461 2605,2458 2588,2456 2556,2452 2524,2451 2524,2451 2486,2453 2450,2458 2414,2464 2381,2474 2348,2486 2317,2500 2288,2517 2259,2536 2255,2539 2233,2558 2209,2583 2185,2608 2171,2626 2163,2638 2142,2668 2123,2701 2105,2737 2089,2776 2060,2859 2034,2951 2013,3051 1996,3160 1982,3277 1972,3402 1971,3409 1966,3536 1963,3679 1965,3822 1969,3912 1972,3956 1982,4082 1997,4198 2018,4306 2043,4405 2073,4495 2089,4537 2107,4577 2126,4614 2147,4650 2160,4670 2169,4684 2193,4715 2219,4744 2243,4767 2246,4771 2276,4795 2307,4818 2339,4837 2374,4855 2409,4871 2446,4884 2510,4900 2527,4905 2591,4910 2614,4912 2654,4912 2692,4911 2728,4908 2764,4903 2797,4896 2829,4886 2860,4874 2889,4862 2917,4847 2944,4830 2970,4814 2982,4803 2995,4795 3020,4776 3043,4754 3065,4733 3066,4731 3085,4711 3124,4664 3159,4617 3193,4569 3222,4519 3228,4528 3235,4536 3240,4544 3245,4553 3251,4563 3255,4574 3259,4584 3262,4595 3266,4607 3269,4619 3273,4645 3275,4674 3276,4703 3275,4733 3271,4764 3266,4793 3258,4824 3249,4857 3237,4888 3223,4920 3207,4953 3188,4985 3166,5016 3142,5045 3114,5073 3083,5100 3051,5126 3014,5150 2975,5173 2933,5192 2886,5209 2837,5222 2784,5232 2727,5239 2666,5243 2603,5244 2535,5241 Z M 4716,5184 L 4624,5194 4536,5197 4500,5195 4451,5192 4371,5177 4295,5158 4258,5144 4222,5129 4154,5093 4153,5094 4089,5050 4031,5004 4028,5001 3971,4946 3918,4886 3870,4821 3825,4750 3806,4715 3784,4674 3748,4594 3715,4507 3686,4417 3662,4322 3641,4225 3624,4123 3611,4017 3602,3908 3597,3795 3595,3677 3598,3561 3604,3450 3615,3340 3628,3235 3647,3132 3669,3031 3695,2934 3725,2840 3759,2748 3797,2662 3814,2626 3839,2578 3884,2500 3933,2426 3986,2356 4039,2291 4043,2289 4103,2227 4163,2172 4167,2170 4234,2116 4266,2094 4305,2068 4380,2026 4458,1990 4505,1971 4541,1959 4627,1933 4717,1914 4774,1903 4778,1904 4806,1899 4890,1887 4967,1883 5038,1885 5105,1891 5164,1904 5218,1923 5243,1935 5266,1948 5308,1978 5345,2011 5361,2028 5376,2047 5389,2067 5401,2086 5412,2108 5421,2129 5429,2153 5435,2177 5440,2201 5443,2227 5445,2253 5446,2279 5446,2300 5444,2321 5443,2342 5440,2362 5436,2382 5432,2402 5426,2421 5421,2440 5414,2459 5406,2477 5398,2495 5388,2513 5379,2530 5368,2548 5344,2582 5331,2597 5317,2614 5303,2627 5287,2642 5254,2667 5218,2690 5179,2710 5138,2726 5094,2741 5046,2752 5046,2716 5044,2681 5042,2644 5039,2608 5034,2572 5028,2538 5022,2503 5015,2469 5006,2435 4996,2403 4984,2375 4971,2347 4957,2320 4940,2297 4923,2275 4904,2255 4894,2245 4884,2237 4872,2229 4862,2223 4838,2212 4812,2205 4785,2201 4777,2199 4773,2199 4756,2199 4725,2200 4694,2204 4656,2212 4620,2223 4585,2235 4552,2251 4520,2269 4504,2277 4489,2289 4461,2311 4433,2336 4408,2364 4383,2395 4360,2426 4338,2462 4318,2499 4299,2539 4282,2581 4266,2626 4264,2627 4237,2722 4212,2826 4191,2938 4174,3060 4161,3190 4160,3198 4151,3327 4145,3473 4142,3629 4144,3782 4151,3927 4157,4012 4161,4061 4177,4182 4198,4295 4224,4397 4254,4487 4260,4504 4269,4529 4288,4568 4307,4604 4328,4638 4350,4668 4374,4696 4401,4721 4427,4744 4457,4764 4488,4783 4500,4787 4520,4796 4555,4807 4590,4816 4627,4821 4707,4825 4770,4818 4774,4818 4793,4816 4833,4807 4870,4798 4906,4786 4941,4773 4974,4758 5004,4740 5035,4721 5064,4701 5091,4680 5118,4655 5143,4633 5168,4608 5192,4582 5214,4556 5236,4530 5256,4503 5294,4447 5328,4391 5361,4335 5389,4278 5396,4285 5402,4293 5407,4301 5413,4309 5418,4318 5422,4329 5426,4339 5429,4350 5433,4363 5436,4374 5440,4401 5442,4430 5443,4461 5442,4493 5439,4526 5434,4558 5426,4592 5418,4627 5406,4662 5392,4699 5376,4735 5358,4773 5337,4809 5313,4845 5286,4879 5256,4913 5224,4947 5188,4979 5149,5011 5108,5040 5062,5070 5014,5095 4962,5117 4905,5138 4846,5156 4783,5172 4716,5184 Z"/>
    </g>
    <path fill="none" stroke="rgb(255,128,0)" stroke-width="40" stroke-linejoin="miter" d="M 2535,5241 L 2508,5239 2442,5231 2353,5213 2268,5192 2241,5181 2188,5160 2157,5145 2113,5124 2040,5082 1972,5035 1963,5027 1908,4980 1848,4920 1792,4856 1770,4827 1740,4790 1693,4720 1689,4713 1649,4643 1609,4562 1574,4480 1541,4393 1513,4303 1489,4211 1468,4117 1451,4020 1437,3921 1428,3819 1423,3714 1421,3607 1423,3502 1428,3402 1439,3305 1451,3212 1470,3122 1491,3035 1517,2951 1547,2871 1580,2795 1618,2724 1659,2655 1695,2605 1705,2593 1754,2534 1778,2508 1807,2479 1865,2426 1925,2378 1976,2343 1990,2336 2058,2298 2130,2267 2173,2252 2206,2240 2257,2225 2286,2218 2370,2200 2458,2188 2526,2184 2549,2183 2606,2183 2640,2182 2725,2182 2803,2188 2876,2200 2944,2215 2997,2233 3004,2235 3059,2261 3079,2272 3085,2276 3108,2290 3151,2322 3188,2358 3204,2376 3219,2396 3233,2415 3245,2435 3255,2457 3265,2479 3272,2502 3279,2525 3284,2549 3287,2574 3289,2599 3290,2624 3290,2644 3288,2664 3286,2684 3283,2702 3279,2721 3274,2740 3269,2757 3263,2774 3256,2792 3248,2808 3240,2824 3230,2840 3220,2855 3209,2871 3184,2900 3171,2914 3156,2927 3142,2938 3126,2951 3093,2970 3075,2978 3056,2988 3016,3001 2992,3005 2974,3009 2929,3016 2880,3019 2881,2985 2879,2951 2877,2917 2874,2882 2868,2848 2863,2814 2857,2780 2850,2747 2841,2714 2831,2683 2819,2654 2806,2626 2791,2599 2774,2575 2757,2551 2738,2529 2728,2519 2718,2510 2706,2501 2695,2493 2670,2479 2645,2470 2617,2461 2605,2458 2588,2456 2556,2452 2524,2451 2524,2451 2486,2453 2450,2458 2414,2464 2381,2474 2348,2486 2317,2500 2288,2517 2259,2536 2255,2539 2233,2558 2209,2583 2185,2608 2171,2626 2163,2638 2142,2668 2123,2701 2105,2737 2089,2776 2060,2859 2034,2951 2013,3051 1996,3160 1982,3277 1972,3402 1971,3409 1966,3536 1963,3679 1965,3822 1969,3912 1972,3956 1982,4082 1997,4198 2018,4306 2043,4405 2073,4495 2089,4537 2107,4577 2126,4614 2147,4650 2160,4670 2169,4684 2193,4715 2219,4744 2243,4767 2246,4771 2276,4795 2307,4818 2339,4837 2374,4855 2409,4871 2446,4884 2510,4900 2527,4905 2591,4910 2614,4912 2654,4912 2692,4911 2728,4908 2764,4903 2797,4896 2829,4886 2860,4874 2889,4862 2917,4847 2944,4830 2970,4814 2982,4803 2995,4795 3020,4776 3043,4754 3065,4733 3066,4731 3085,4711 3124,4664 3159,4617 3193,4569 3222,4519 3228,4528 3235,4536 3240,4544 3245,4553 3251,4563 3255,4574 3259,4584 3262,4595 3266,4607 3269,4619 3273,4645 3275,4674 3276,4703 3275,4733 3271,4764 3266,4793 3258,4824 3249,4857 3237,4888 3223,4920 3207,4953 3188,4985 3166,5016 3142,5045 3114,5073 3083,5100 3051,5126 3014,5150 2975,5173 2933,5192 2886,5209 2837,5222 2784,5232 2727,5239 2666,5243 2603,5244 2535,5241 Z"/>
    <path fill="none" stroke="rgb(255,128,0)" stroke-width="40" stroke-linejoin="miter" d="M 4716,5184 L 4624,5194 4536,5197 4500,5195 4451,5192 4371,5177 4295,5158 4258,5144 4222,5129 4154,5093 4153,5094 4089,5050 4031,5004 4028,5001 3971,4946 3918,4886 3870,4821 3825,4750 3806,4715 3784,4674 3748,4594 3715,4507 3686,4417 3662,4322 3641,4225 3624,4123 3611,4017 3602,3908 3597,3795 3595,3677 3598,3561 3604,3450 3615,3340 3628,3235 3647,3132 3669,3031 3695,2934 3725,2840 3759,2748 3797,2662 3814,2626 3839,2578 3884,2500 3933,2426 3986,2356 4039,2291 4043,2289 4103,2227 4163,2172 4167,2170 4234,2116 4266,2094 4305,2068 4380,2026 4458,1990 4505,1971 4541,1959 4627,1933 4717,1914 4774,1903 4778,1904 4806,1899 4890,1887 4967,1883 5038,1885 5105,1891 5164,1904 5218,1923 5243,1935 5266,1948 5308,1978 5345,2011 5361,2028 5376,2047 5389,2067 5401,2086 5412,2108 5421,2129 5429,2153 5435,2177 5440,2201 5443,2227 5445,2253 5446,2279 5446,2300 5444,2321 5443,2342 5440,2362 5436,2382 5432,2402 5426,2421 5421,2440 5414,2459 5406,2477 5398,2495 5388,2513 5379,2530 5368,2548 5344,2582 5331,2597 5317,2614 5303,2627 5287,2642 5254,2667 5218,2690 5179,2710 5138,2726 5094,2741 5046,2752 5046,2716 5044,2681 5042,2644 5039,2608 5034,2572 5028,2538 5022,2503 5015,2469 5006,2435 4996,2403 4984,2375 4971,2347 4957,2320 4940,2297 4923,2275 4904,2255 4894,2245 4884,2237 4872,2229 4862,2223 4838,2212 4812,2205 4785,2201 4777,2199 4773,2199 4756,2199 4725,2200 4694,2204 4656,2212 4620,2223 4585,2235 4552,2251 4520,2269 4504,2277 4489,2289 4461,2311 4433,2336 4408,2364 4383,2395 4360,2426 4338,2462 4318,2499 4299,2539 4282,2581 4266,2626 4264,2627 4237,2722 4212,2826 4191,2938 4174,3060 4161,3190 4160,3198 4151,3327 4145,3473 4142,3629 4144,3782 4151,3927 4157,4012 4161,4061 4177,4182 4198,4295 4224,4397 4254,4487 4260,4504 4269,4529 4288,4568 4307,4604 4328,4638 4350,4668 4374,4696 4401,4721 4427,4744 4457,4764 4488,4783 4500,4787 4520,4796 4555,4807 4590,4816 4627,4821 4707,4825 4770,4818 4774,4818 4793,4816 4833,4807 4870,4798 4906,4786 4941,4773 4974,4758 5004,4740 5035,4721 5064,4701 5091,4680 5118,4655 5143,4633 5168,4608 5192,4582 5214,4556 5236,4530 5256,4503 5294,4447 5328,4391 5361,4335 5389,4278 5396,4285 5402,4293 5407,4301 5413,4309 5418,4318 5422,4329 5426,4339 5429,4350 5433,4363 5436,4374 5440,4401 5442,4430 5443,4461 5442,4493 5439,4526 5434,4558 5426,4592 5418,4627 5406,4662 5392,4699 5376,4735 5358,4773 5337,4809 5313,4845 5286,4879 5256,4913 5224,4947 5188,4979 5149,5011 5108,5040 5062,5070 5014,5095 4962,5117 4905,5138 4846,5156 4783,5172 4716,5184 Z"/>
    <g>
     <defs>
      <linearGradient id="gradient2" x1="3293" y1="1743" x2="3293" y2="5104" gradientUnits="userSpaceOnUse">
       <stop offset="0" style="stop-color:rgb(255,0,0)"/>
       <stop offset="1" style="stop-color:rgb(255,128,0)"/>
      </linearGradient>
     </defs>
     <path style="fill:url(#gradient2)" d="M 2395,5101 L 2368,5099 2302,5091 2213,5073 2128,5052 2101,5041 2048,5020 2017,5005 1973,4984 1900,4942 1832,4895 1823,4887 1768,4840 1708,4780 1652,4716 1630,4687 1600,4650 1553,4580 1549,4573 1509,4503 1469,4422 1434,4340 1401,4253 1373,4163 1349,4071 1328,3977 1311,3880 1297,3781 1288,3679 1283,3574 1281,3467 1283,3362 1288,3262 1299,3165 1311,3072 1330,2982 1351,2895 1377,2811 1407,2731 1440,2655 1478,2584 1519,2515 1555,2465 1565,2453 1614,2394 1638,2368 1667,2339 1725,2286 1785,2238 1836,2203 1850,2196 1918,2158 1990,2127 2033,2112 2066,2100 2117,2085 2146,2078 2230,2060 2318,2048 2386,2044 2409,2043 2466,2043 2500,2042 2585,2042 2663,2048 2736,2060 2804,2075 2857,2093 2864,2095 2919,2121 2939,2132 2945,2136 2968,2150 3011,2182 3048,2218 3064,2236 3079,2256 3093,2275 3105,2295 3115,2317 3125,2339 3132,2362 3139,2385 3144,2409 3147,2434 3149,2459 3150,2484 3150,2504 3148,2524 3146,2544 3143,2562 3139,2581 3134,2600 3129,2617 3123,2634 3116,2652 3108,2668 3100,2684 3090,2700 3080,2715 3069,2731 3044,2760 3031,2774 3016,2787 3002,2798 2986,2811 2953,2830 2935,2838 2916,2848 2876,2861 2852,2865 2834,2869 2789,2876 2740,2879 2741,2845 2739,2811 2737,2777 2734,2742 2728,2708 2723,2674 2717,2640 2710,2607 2701,2574 2691,2543 2679,2514 2666,2486 2651,2459 2634,2435 2617,2411 2598,2389 2588,2379 2578,2370 2566,2361 2555,2353 2530,2339 2505,2330 2477,2321 2465,2318 2448,2316 2416,2312 2384,2311 2384,2311 2346,2313 2310,2318 2274,2324 2241,2334 2208,2346 2177,2360 2148,2377 2119,2396 2115,2399 2093,2418 2069,2443 2045,2468 2031,2486 2023,2498 2002,2528 1983,2561 1965,2597 1949,2636 1920,2719 1894,2811 1873,2911 1856,3020 1842,3137 1832,3262 1831,3269 1826,3396 1823,3539 1825,3682 1829,3772 1832,3816 1842,3942 1857,4058 1878,4166 1903,4265 1933,4355 1949,4397 1967,4437 1986,4474 2007,4510 2020,4530 2029,4544 2053,4575 2079,4604 2103,4627 2106,4631 2136,4655 2167,4678 2199,4697 2234,4715 2269,4731 2306,4744 2370,4760 2387,4765 2451,4770 2474,4772 2514,4772 2552,4771 2588,4768 2624,4763 2657,4756 2689,4746 2720,4734 2749,4722 2777,4707 2804,4690 2830,4674 2842,4663 2855,4655 2880,4636 2903,4614 2925,4593 2926,4591 2945,4571 2984,4524 3019,4477 3053,4429 3082,4379 3088,4388 3095,4396 3100,4404 3105,4413 3111,4423 3115,4434 3119,4444 3122,4455 3126,4467 3129,4479 3133,4505 3135,4534 3136,4563 3135,4593 3131,4624 3126,4653 3118,4684 3109,4717 3097,4748 3083,4780 3067,4813 3048,4845 3026,4876 3002,4905 2974,4933 2943,4960 2911,4986 2874,5010 2835,5033 2793,5052 2746,5069 2697,5082 2644,5092 2587,5099 2526,5103 2463,5104 2395,5101 Z M 4576,5044 L 4484,5054 4396,5057 4360,5055 4311,5052 4231,5037 4155,5018 4118,5004 4082,4989 4014,4953 4013,4954 3949,4910 3891,4864 3888,4861 3831,4806 3778,4746 3730,4681 3685,4610 3666,4575 3644,4534 3608,4454 3575,4367 3546,4277 3522,4182 3501,4085 3484,3983 3471,3877 3462,3768 3457,3655 3455,3537 3458,3421 3464,3310 3475,3200 3488,3095 3507,2992 3529,2891 3555,2794 3585,2700 3619,2608 3657,2522 3674,2486 3699,2438 3744,2360 3793,2286 3846,2216 3899,2151 3903,2149 3963,2087 4023,2032 4027,2030 4094,1976 4126,1954 4165,1928 4240,1886 4318,1850 4365,1831 4401,1819 4487,1793 4577,1774 4634,1763 4638,1764 4666,1759 4750,1747 4827,1743 4898,1745 4965,1751 5024,1764 5078,1783 5103,1795 5126,1808 5168,1838 5205,1871 5221,1888 5236,1907 5249,1927 5261,1946 5272,1968 5281,1989 5289,2013 5295,2037 5300,2061 5303,2087 5305,2113 5306,2139 5306,2160 5304,2181 5303,2202 5300,2222 5296,2242 5292,2262 5286,2281 5281,2300 5274,2319 5266,2337 5258,2355 5248,2373 5239,2390 5228,2408 5204,2442 5191,2457 5177,2474 5163,2487 5147,2502 5114,2527 5078,2550 5039,2570 4998,2586 4954,2601 4906,2612 4906,2576 4904,2541 4902,2504 4899,2468 4894,2432 4888,2398 4882,2363 4875,2329 4866,2295 4856,2263 4844,2235 4831,2207 4817,2180 4800,2157 4783,2135 4764,2115 4754,2105 4744,2097 4732,2089 4722,2083 4698,2072 4672,2065 4645,2061 4637,2059 4633,2059 4616,2059 4585,2060 4554,2064 4516,2072 4480,2083 4445,2095 4412,2111 4380,2129 4364,2137 4349,2149 4321,2171 4293,2196 4268,2224 4243,2255 4220,2286 4198,2322 4178,2359 4159,2399 4142,2441 4126,2486 4124,2487 4097,2582 4072,2686 4051,2798 4034,2920 4021,3050 4020,3058 4011,3187 4005,3333 4002,3489 4004,3642 4011,3787 4017,3872 4021,3921 4037,4042 4058,4155 4084,4257 4114,4347 4120,4364 4129,4389 4148,4428 4167,4464 4188,4498 4210,4528 4234,4556 4261,4581 4287,4604 4317,4624 4348,4643 4360,4647 4380,4656 4415,4667 4450,4676 4487,4681 4567,4685 4630,4678 4634,4678 4653,4676 4693,4667 4730,4658 4766,4646 4801,4633 4834,4618 4864,4600 4895,4581 4924,4561 4951,4540 4978,4515 5003,4493 5028,4468 5052,4442 5074,4416 5096,4390 5116,4363 5154,4307 5188,4251 5221,4195 5249,4138 5256,4145 5262,4153 5267,4161 5273,4169 5278,4178 5282,4189 5286,4199 5289,4210 5293,4223 5296,4234 5300,4261 5302,4290 5303,4321 5302,4353 5299,4386 5294,4418 5286,4452 5278,4487 5266,4522 5252,4559 5236,4595 5218,4633 5197,4669 5173,4705 5146,4739 5116,4773 5084,4807 5048,4839 5009,4871 4968,4900 4922,4930 4874,4955 4822,4977 4765,4998 4706,5016 4643,5032 4576,5044 Z"/>
    </g>
    <path fill="none" stroke="rgb(191,0,65)" stroke-width="40" stroke-linejoin="miter" d="M 2395,5101 L 2368,5099 2302,5091 2213,5073 2128,5052 2101,5041 2048,5020 2017,5005 1973,4984 1900,4942 1832,4895 1823,4887 1768,4840 1708,4780 1652,4716 1630,4687 1600,4650 1553,4580 1549,4573 1509,4503 1469,4422 1434,4340 1401,4253 1373,4163 1349,4071 1328,3977 1311,3880 1297,3781 1288,3679 1283,3574 1281,3467 1283,3362 1288,3262 1299,3165 1311,3072 1330,2982 1351,2895 1377,2811 1407,2731 1440,2655 1478,2584 1519,2515 1555,2465 1565,2453 1614,2394 1638,2368 1667,2339 1725,2286 1785,2238 1836,2203 1850,2196 1918,2158 1990,2127 2033,2112 2066,2100 2117,2085 2146,2078 2230,2060 2318,2048 2386,2044 2409,2043 2466,2043 2500,2042 2585,2042 2663,2048 2736,2060 2804,2075 2857,2093 2864,2095 2919,2121 2939,2132 2945,2136 2968,2150 3011,2182 3048,2218 3064,2236 3079,2256 3093,2275 3105,2295 3115,2317 3125,2339 3132,2362 3139,2385 3144,2409 3147,2434 3149,2459 3150,2484 3150,2504 3148,2524 3146,2544 3143,2562 3139,2581 3134,2600 3129,2617 3123,2634 3116,2652 3108,2668 3100,2684 3090,2700 3080,2715 3069,2731 3044,2760 3031,2774 3016,2787 3002,2798 2986,2811 2953,2830 2935,2838 2916,2848 2876,2861 2852,2865 2834,2869 2789,2876 2740,2879 2741,2845 2739,2811 2737,2777 2734,2742 2728,2708 2723,2674 2717,2640 2710,2607 2701,2574 2691,2543 2679,2514 2666,2486 2651,2459 2634,2435 2617,2411 2598,2389 2588,2379 2578,2370 2566,2361 2555,2353 2530,2339 2505,2330 2477,2321 2465,2318 2448,2316 2416,2312 2384,2311 2384,2311 2346,2313 2310,2318 2274,2324 2241,2334 2208,2346 2177,2360 2148,2377 2119,2396 2115,2399 2093,2418 2069,2443 2045,2468 2031,2486 2023,2498 2002,2528 1983,2561 1965,2597 1949,2636 1920,2719 1894,2811 1873,2911 1856,3020 1842,3137 1832,3262 1831,3269 1826,3396 1823,3539 1825,3682 1829,3772 1832,3816 1842,3942 1857,4058 1878,4166 1903,4265 1933,4355 1949,4397 1967,4437 1986,4474 2007,4510 2020,4530 2029,4544 2053,4575 2079,4604 2103,4627 2106,4631 2136,4655 2167,4678 2199,4697 2234,4715 2269,4731 2306,4744 2370,4760 2387,4765 2451,4770 2474,4772 2514,4772 2552,4771 2588,4768 2624,4763 2657,4756 2689,4746 2720,4734 2749,4722 2777,4707 2804,4690 2830,4674 2842,4663 2855,4655 2880,4636 2903,4614 2925,4593 2926,4591 2945,4571 2984,4524 3019,4477 3053,4429 3082,4379 3088,4388 3095,4396 3100,4404 3105,4413 3111,4423 3115,4434 3119,4444 3122,4455 3126,4467 3129,4479 3133,4505 3135,4534 3136,4563 3135,4593 3131,4624 3126,4653 3118,4684 3109,4717 3097,4748 3083,4780 3067,4813 3048,4845 3026,4876 3002,4905 2974,4933 2943,4960 2911,4986 2874,5010 2835,5033 2793,5052 2746,5069 2697,5082 2644,5092 2587,5099 2526,5103 2463,5104 2395,5101 Z"/>
    <path fill="none" stroke="rgb(191,0,65)" stroke-width="40" stroke-linejoin="miter" d="M 4576,5044 L 4484,5054 4396,5057 4360,5055 4311,5052 4231,5037 4155,5018 4118,5004 4082,4989 4014,4953 4013,4954 3949,4910 3891,4864 3888,4861 3831,4806 3778,4746 3730,4681 3685,4610 3666,4575 3644,4534 3608,4454 3575,4367 3546,4277 3522,4182 3501,4085 3484,3983 3471,3877 3462,3768 3457,3655 3455,3537 3458,3421 3464,3310 3475,3200 3488,3095 3507,2992 3529,2891 3555,2794 3585,2700 3619,2608 3657,2522 3674,2486 3699,2438 3744,2360 3793,2286 3846,2216 3899,2151 3903,2149 3963,2087 4023,2032 4027,2030 4094,1976 4126,1954 4165,1928 4240,1886 4318,1850 4365,1831 4401,1819 4487,1793 4577,1774 4634,1763 4638,1764 4666,1759 4750,1747 4827,1743 4898,1745 4965,1751 5024,1764 5078,1783 5103,1795 5126,1808 5168,1838 5205,1871 5221,1888 5236,1907 5249,1927 5261,1946 5272,1968 5281,1989 5289,2013 5295,2037 5300,2061 5303,2087 5305,2113 5306,2139 5306,2160 5304,2181 5303,2202 5300,2222 5296,2242 5292,2262 5286,2281 5281,2300 5274,2319 5266,2337 5258,2355 5248,2373 5239,2390 5228,2408 5204,2442 5191,2457 5177,2474 5163,2487 5147,2502 5114,2527 5078,2550 5039,2570 4998,2586 4954,2601 4906,2612 4906,2576 4904,2541 4902,2504 4899,2468 4894,2432 4888,2398 4882,2363 4875,2329 4866,2295 4856,2263 4844,2235 4831,2207 4817,2180 4800,2157 4783,2135 4764,2115 4754,2105 4744,2097 4732,2089 4722,2083 4698,2072 4672,2065 4645,2061 4637,2059 4633,2059 4616,2059 4585,2060 4554,2064 4516,2072 4480,2083 4445,2095 4412,2111 4380,2129 4364,2137 4349,2149 4321,2171 4293,2196 4268,2224 4243,2255 4220,2286 4198,2322 4178,2359 4159,2399 4142,2441 4126,2486 4124,2487 4097,2582 4072,2686 4051,2798 4034,2920 4021,3050 4020,3058 4011,3187 4005,3333 4002,3489 4004,3642 4011,3787 4017,3872 4021,3921 4037,4042 4058,4155 4084,4257 4114,4347 4120,4364 4129,4389 4148,4428 4167,4464 4188,4498 4210,4528 4234,4556 4261,4581 4287,4604 4317,4624 4348,4643 4360,4647 4380,4656 4415,4667 4450,4676 4487,4681 4567,4685 4630,4678 4634,4678 4653,4676 4693,4667 4730,4658 4766,4646 4801,4633 4834,4618 4864,4600 4895,4581 4924,4561 4951,4540 4978,4515 5003,4493 5028,4468 5052,4442 5074,4416 5096,4390 5116,4363 5154,4307 5188,4251 5221,4195 5249,4138 5256,4145 5262,4153 5267,4161 5273,4169 5278,4178 5282,4189 5286,4199 5289,4210 5293,4223 5296,4234 5300,4261 5302,4290 5303,4321 5302,4353 5299,4386 5294,4418 5286,4452 5278,4487 5266,4522 5252,4559 5236,4595 5218,4633 5197,4669 5173,4705 5146,4739 5116,4773 5084,4807 5048,4839 5009,4871 4968,4900 4922,4930 4874,4955 4822,4977 4765,4998 4706,5016 4643,5032 4576,5044 Z"/>
   </g>
  </g>
 </g>
</svg>